<svg xmlns="http://www.w3.org/2000/svg" width="67.267" height="100.812" viewBox="0 0 67.267 100.812">
  <g id="Componente_1_1" data-name="Componente 1 – 1" transform="translate(0.507 1.425)">
    <path id="Trazado_1" data-name="Trazado 1" d="M412.394,273.67l-17.273,21.591,17.273,12.955Z" transform="translate(-381.724 -273.67)" fill="#52c4c0" stroke="#43a6a2" stroke-width="1"/>
    <path id="Trazado_2" data-name="Trazado 2" d="M412.394,322.326V346l-28.069-17.273,6.89-22.7Z" transform="translate(-381.724 -279.67)" fill="#52c4c0" stroke="#43a6a2" stroke-width="1"/>
    <path id="Trazado_3" data-name="Trazado 3" d="M382.2,335.39l30.076,17.756v25.4s-18.046-.223-25.565-11.013S382.2,335.39,382.2,335.39Z" transform="translate(-381.608 -279.67)" fill="#52c4c0" stroke="#43a6a2" stroke-width="1"/>
    <path id="Trazado_4" data-name="Trazado 4" d="M411.684,335.39l-30.076,17.756v25.4s18.046-.223,25.565-11.013S411.684,335.39,411.684,335.39Z" transform="translate(-346.026 -279.67)" fill="#52c4c0" stroke="#43a6a2" stroke-width="1"/>
    <path id="Trazado_5" data-name="Trazado 5" d="M384.326,322.326V346l28.069-17.273-6.89-22.7Z" transform="translate(-347.443 -279.67)" fill="#52c4c0" stroke="#43a6a2" stroke-width="1"/>
    <path id="Trazado_6" data-name="Trazado 6" d="M395.121,273.67l17.273,21.591-17.273,12.955Z" transform="translate(-358.239 -273.67)" fill="#52c4c0" stroke="#43a6a2" stroke-width="1"/>
  </g>
</svg>
